<?xml version="1.0" encoding="UTF-8" standalone="no"?>
<!-- Created with Inkscape (http://www.inkscape.org/) -->

<svg
   version="1.1"
   id="svg1"
   width="500"
   height="500"
   viewBox="0 0 500 500"
   xmlns="http://www.w3.org/2000/svg"
   xmlns:svg="http://www.w3.org/2000/svg">
  <defs
     id="defs1" />
  <g
     id="g1"
     style="display:inline">
    <path
       style="fill:#ba8341;fill-opacity:1;stroke-width:0.258479"
       d="m 337.30769,445.17498 c -14.12667,-13.10991 -26.44352,-23.17594 -37.30562,-30.48819 -15.45415,-10.4036 -32.47516,-20.33536 -47.52441,-27.73054 -15.63891,-7.68493 -26.16416,-11.77353 -46.21589,-17.95298 -36.16663,-11.14559 -62.79116,-16.34363 -96.91339,-18.92092 -10.41722,-0.78682 -24.834268,-1.42969 -32.225854,-1.43699 -3.172888,-0.003 -3.409143,-0.0374 -3.409143,-0.4952 0,-0.27048 -1.61107,-6.20066 -3.580153,-13.1781 -3.831954,-13.57873 -5.225848,-18.81646 -5.053669,-18.99018 0.0592,-0.0596 4.02321,0.0198 8.809011,0.1811 38.256848,1.2737 68.634458,3.64213 87.142598,6.7942 4.32831,0.73715 14.97119,2.89881 21.77418,4.42259 24.46773,5.48036 41.28055,11.08159 64.3654,21.4435 l 6.08865,2.73298 4.07441,-2.45993 c 33.7568,-20.38038 57.42967,-31.70428 83.70644,-40.04075 25.43901,-8.07071 50.03528,-12.65865 85.67833,-15.9815 5.55227,-0.51764 15.23253,-1.2456 15.37929,-1.15657 0.0385,0.0224 -1.19334,6.57379 -2.73787,14.55629 -1.54456,7.98251 -3.00402,15.62958 -3.24334,16.99355 l -0.4351,2.47989 -7.37599,0.007 c -7.50185,0.007 -11.96324,0.26798 -19.64172,1.1447 -34.79528,3.97284 -75.35994,17.35938 -113.87193,37.57835 -3.71467,1.95024 -6.75393,3.61282 -6.75393,3.69463 0,0.0819 6.03129,3.9802 13.40286,8.66307 l 13.40287,8.51426 2.22765,-0.90121 c 1.2252,-0.4957 6.92229,-2.88624 12.66022,-5.31236 28.30587,-11.96838 35.59811,-14.44357 52.8965,-17.95462 11.93936,-2.42331 29.06023,-5.05599 38.25824,-5.88289 l 2.0151,-0.1811 -1.34123,2.69931 c -0.73769,1.48467 -4.32113,8.3666 -7.96322,15.29323 -3.64209,6.92661 -7.09141,13.53729 -7.6652,14.69041 l -1.04324,2.09657 -11.4051,2.92146 c -22.64122,5.79964 -41.97476,11.93692 -47.01156,14.92353 l -0.87206,0.51705 0.75565,0.66712 c 0.41562,0.3669 2.8342,2.4403 5.37467,4.60757 5.25985,4.48715 16.0651,15.26137 15.67503,15.62999 -0.13751,0.12982 -5.63361,4.00839 -12.21387,8.61904 -6.58023,4.61067 -12.54383,8.81308 -13.25235,9.33865 l -1.28828,0.95559 z"
       id="path4" />
    <path
       style="fill:#ba8341;fill-opacity:1;stroke-width:0.367223"
       d="m 258.12239,470.72587 c -12.46125,-10.41374 -43.77619,-29.49865 -60.08782,-36.62065 -13.93649,-6.08494 -40.79503,-15.31301 -56.03285,-19.2518 -10.10299,-2.61145 -27.34086,-6.05865 -30.2968,-6.05865 -0.66254,0 -1.39016,-0.34007 -1.90341,-0.88963 -1.59495,-1.7078 -21.323512,-30.94335 -23.084648,-34.20884 l -0.441914,-0.81943 4.547084,0.23308 c 15.449818,0.79117 29.995268,2.70814 44.716378,5.89316 30.18804,6.53148 58.64095,16.39747 85.90459,29.78725 21.62584,10.62088 37.66166,20.7338 54.04243,34.08164 9.52077,7.75795 26.51572,22.00402 26.39397,22.12483 -0.098,0.0973 -36.34368,6.88831 -40.43926,7.57674 -0.70361,0.1184 -1.48836,-0.31871 -3.31775,-1.8475 z"
       id="path5" />
    <path
       style="fill:#648354;fill-opacity:1;stroke-width:0.713133"
       d="m 244.61523,499.58906 c -18.13766,-1.46414 -30.25336,-3.35672 -45.11018,-7.04661 C 154.44844,481.35209 116.41809,457.96427 86.372281,422.96831 42.441476,371.79974 20.54424,296.72208 27.531298,221.22394 32.514325,167.38018 50.885906,119.36296 81.009426,81.449794 87.85428,72.834926 105.9068,54.485532 113.75525,48.165448 c 32.8991,-26.492474 68.171,-41.445411 109.10503,-46.2532496 11.71736,-1.37623369 36.17491,-1.36073713 48.14524,0.030596 39.94626,4.6427244 79.74923,18.1223176 98.63874,33.4047856 14.84785,12.012594 26.43562,36.895864 30.85176,66.2503 1.84539,12.26636 2.56044,35.75353 1.43829,47.24311 -3.72099,38.09923 -19.19747,69.94807 -47.00522,96.73145 -34.28117,33.01833 -77.34208,50.47272 -144.19277,58.4473 -17.59436,2.09882 -47.4092,2.32271 -57.75873,0.43376 -16.4917,-3.01005 -19.85339,-5.53256 -27.28472,-20.47372 -8.76946,-17.63156 -11.9173,-30.06071 -12.46212,-49.20621 -0.53638,-18.84968 1.99075,-33.3357 8.83304,-50.63247 14.39658,-36.39344 43.8637,-67.17342 82.61597,-86.296792 17.49932,-8.635538 33.67586,-14.059806 52.00051,-17.436738 16.89883,-3.114162 23.52486,-3.565602 52.54057,-3.57968 23.18905,-0.01241 27.72198,0.151732 28.78838,1.035706 1.83896,1.524236 1.17353,6.781848 -2.43966,19.27598 -13.6949,47.355674 -36.09635,74.574064 -84.53614,102.713724 -21.44261,12.45649 -31.98708,20.1837 -43.95834,32.21363 -12.61102,12.67283 -21.51858,26.35916 -21.60685,33.19857 -0.0649,5.03843 1.37531,5.53989 15.64585,5.44718 24.5226,-0.15944 60.23652,-7.52824 83.28801,-17.18499 14.52609,-6.0853 36.0293,-20.9489 50.33589,-34.79361 17.31881,-16.75963 27.39676,-34.18507 32.17374,-55.63043 4.38351,-19.67904 3.24659,-51.6859 -2.57117,-72.383034 -2.42047,-8.611036 -8.10372,-19.631826 -12.8,-24.821408 -4.43266,-4.89823 -18.32778,-14.63793 -26.17404,-18.346508 -5.32925,-2.5189 -23.19358,-7.920658 -32.64749,-9.871856 -7.67784,-1.584654 -16.75079,-2.469002 -33.48456,-3.263854 -21.59996,-1.026006 -31.14055,0.20372 -55.93903,7.210304 -44.66419,12.619472 -76.054,33.491994 -102.07076,67.871516 -11.856728,15.66792 -24.16291,38.87265 -29.75202,56.10082 -8.810528,27.15802 -12.409933,53.7226 -11.718956,86.48903 0.582974,27.6461 2.749408,41.13549 12.222632,76.10539 5.290818,19.53074 5.75681,20.83942 11.934912,33.51727 7.742608,15.88829 24.504632,41.69277 31.983402,49.23712 16.26487,16.4075 33.38096,29.45463 50.76144,38.69405 7.521,3.99816 18.63484,8.05645 22.33474,9.30162 l 3.08488,1.0382 c 31.05503,10.4498 50.62659,13.37193 80.08388,7.98016 8.77623,-1.64087 19.40358,-3.58811 23.61636,-4.32726 8.29777,-1.45579 16.3375,-4.23279 30.94104,-10.68737 7.91374,-3.49774 12.05104,-6.01925 26.74251,-16.29824 9.55918,-6.68816 19.54824,-14.11369 22.19791,-16.50118 2.64966,-2.38746 9.7477,-10.04496 15.77343,-17.01665 l 10.95587,-12.67578 9.31577,-17.75973 c 5.12366,-9.76783 12.01842,-23.85701 15.32164,-31.30925 l 6.00588,-13.54953 3.43541,-17.82833 c 4.87886,-25.31907 5.26694,-28.57696 5.77659,-48.4931 0.64299,-25.12797 -1.18767,-48.46275 -5.42134,-69.10376 l -1.3299,-6.48382 3.25182,-5.46665 c 3.2738,-5.50364 12.53813,-17.0016 13.69881,-17.0016 0.93706,0 7.3978,7.69594 9.93339,11.83249 3.06353,4.9978 4.14646,8.31874 6.53704,20.04662 4.13825,20.30178 5.67219,38.84732 5.68002,68.6727 0.004,20.92562 -0.86285,28.97765 -5.0374,46.71023 -13.66916,58.06374 -31.39812,92.32245 -65.5443,126.6551 -6.47697,6.51234 -15.14586,14.51044 -19.26419,17.77361 -32.97357,26.1264 -70.35351,40.93441 -111.53065,44.18274 -8.54741,0.6743 -21.93064,0.79381 -28.60006,0.25545 z M 151.49984,251.12605 c 6.46672,-10.85225 15.05654,-23.33214 20.58137,-29.90211 6.89859,-8.20355 31.96298,-32.98648 39.3733,-38.93114 2.94168,-2.35986 9.52034,-7.13351 14.61925,-10.60813 17.01744,-11.59646 29.6728,-21.5931 42.65046,-33.69022 13.08778,-12.19977 22.17202,-23.60131 21.74175,-27.28787 -0.20671,-1.76999 -0.30891,-1.7991 -5.91528,-1.68182 -7.44061,0.15572 -27.9831,5.3796 -50.07707,12.73452 -19.69884,6.55763 -25.79456,9.41726 -35.31091,16.56513 -26.69204,20.04878 -48.43419,52.25292 -53.68044,79.51057 -1.27123,6.60482 -1.45132,19.14419 -0.43472,30.26904 0.98862,10.8187 1.62794,11.11812 6.45229,3.02203 z"
       id="path6" />
  </g>
</svg>
